<mxfile host="app.diagrams.net" modified="2024-01-20T12:04:42.089Z" agent="Mozilla/5.0 (Windows NT 10.0; Win64; x64) AppleWebKit/537.36 (KHTML, like Gecko) Chrome/119.0.0.0 Safari/537.36" version="22.1.21" etag="lyGYXpuXuIyTm2BsCL2C" type="github">
  <diagram name="第 1 页" id="0i5I1-affP1TwXvXj8Ms">
    <mxGraphModel>
      <root>
        <mxCell id="0" />
        <mxCell id="1" parent="0" />
      </root>
    </mxGraphModel>
  </diagram>
</mxfile>
